
<svg class="animated" id="freepik_stories-press-play" xmlns="http://www.w3.org/2000/svg" viewBox="0 0 500 500" version="1.1" xmlns:xlink="http://www.w3.org/1999/xlink" xmlns:svgjs="http://svgjs.com/svgjs"><g id="freepik--background-complete--inject-2" class="animable" style="transform-origin: 250px 228.23px;"><rect y="382.4" width="500" height="0.25" style="fill: rgb(235, 235, 235); transform-origin: 250px 382.525px;" id="eljuiu6ppvm7" class="animable"></rect><rect x="322.53" y="401.21" width="8.69" height="0.25" style="fill: rgb(235, 235, 235); transform-origin: 326.875px 401.335px;" id="el8bk4ak0cnew" class="animable"></rect><rect x="150.04" y="388.78" width="23.18" height="0.25" style="fill: rgb(235, 235, 235); transform-origin: 161.63px 388.905px;" id="eljws3l27hdwm" class="animable"></rect><rect x="402.1" y="394.14" width="56.67" height="0.25" style="fill: rgb(235, 235, 235); transform-origin: 430.435px 394.265px;" id="el2w606ulkiam" class="animable"></rect><rect x="42.72" y="394.14" width="56.67" height="0.25" style="fill: rgb(235, 235, 235); transform-origin: 71.055px 394.265px;" id="el17jxdkuppas" class="animable"></rect><path d="M237,337.8H43.91a5.71,5.71,0,0,1-5.7-5.71V60.66A5.71,5.71,0,0,1,43.91,55H237a5.71,5.71,0,0,1,5.71,5.71V332.09A5.71,5.71,0,0,1,237,337.8ZM43.91,55.2a5.46,5.46,0,0,0-5.45,5.46V332.09a5.46,5.46,0,0,0,5.45,5.46H237a5.47,5.47,0,0,0,5.46-5.46V60.66A5.47,5.47,0,0,0,237,55.2Z" style="fill: rgb(235, 235, 235); transform-origin: 140.46px 196.4px;" id="ely8yvgag3baq" class="animable"></path><path d="M453.31,337.8H260.21a5.72,5.72,0,0,1-5.71-5.71V60.66A5.72,5.72,0,0,1,260.21,55h193.1A5.71,5.71,0,0,1,459,60.66V332.09A5.71,5.71,0,0,1,453.31,337.8ZM260.21,55.2a5.47,5.47,0,0,0-5.46,5.46V332.09a5.47,5.47,0,0,0,5.46,5.46h193.1a5.47,5.47,0,0,0,5.46-5.46V60.66a5.47,5.47,0,0,0-5.46-5.46Z" style="fill: rgb(235, 235, 235); transform-origin: 356.75px 196.4px;" id="eliuz8domea4" class="animable"></path><circle cx="188.78" cy="376" r="6.4" style="fill: rgb(224, 224, 224); transform-origin: 188.78px 376px;" id="elaaosw6leeua" class="animable"></circle><circle cx="212.88" cy="376" r="6.4" style="fill: rgb(224, 224, 224); transform-origin: 212.88px 376px;" id="elf2av85cbhch" class="animable"></circle><path d="M88,376a6.4,6.4,0,1,1,6.4,6.4A6.41,6.41,0,0,1,88,376Z" style="fill: rgb(224, 224, 224); transform-origin: 94.4px 376px;" id="elu6dol0kiih9" class="animable"></path><circle cx="118.45" cy="376" r="6.4" style="fill: rgb(224, 224, 224); transform-origin: 118.45px 376px;" id="el3w9b5e7lkni" class="animable"></circle><g id="elnr34s8p9gk" class=""><rect x="193.46" y="240.37" width="32.71" height="136.51" style="fill: rgb(235, 235, 235); transform-origin: 209.815px 308.625px; transform: rotate(180deg);" class="animable" id="eligpi72b9fp"></rect></g><rect x="86.64" y="240.37" width="106.83" height="136.51" style="fill: rgb(245, 245, 245); transform-origin: 140.055px 308.625px;" id="eliud7txaksp" class="animable"></rect><rect x="92.44" y="245.97" width="95.22" height="125.31" style="fill: rgb(235, 235, 235); transform-origin: 140.05px 308.625px;" id="elpbo74x4o0kg" class="animable"></rect><rect x="94.81" y="298.67" width="90.47" height="70.29" style="fill: rgb(245, 245, 245); transform-origin: 140.045px 333.815px;" id="el68xw85ivnfb" class="animable"></rect><rect x="94.81" y="248.61" width="90.47" height="48.28" style="fill: rgb(245, 245, 245); transform-origin: 140.045px 272.75px;" id="ellvxucv8a5k" class="animable"></rect><path d="M124.32,299.86h31.46a1.19,1.19,0,0,0,1.19-1.19h0a1.19,1.19,0,0,0-1.19-1.18H124.32a1.18,1.18,0,0,0-1.19,1.18h0A1.19,1.19,0,0,0,124.32,299.86Z" style="fill: rgb(235, 235, 235); transform-origin: 140.05px 298.675px;" id="elb3h6bkv6s8" class="animable"></path><path d="M124.32,249.8h31.46a1.2,1.2,0,0,0,1.19-1.19h0a1.2,1.2,0,0,0-1.19-1.19H124.32a1.19,1.19,0,0,0-1.19,1.19h0A1.19,1.19,0,0,0,124.32,249.8Z" style="fill: rgb(235, 235, 235); transform-origin: 140.05px 248.61px;" id="elkmpfah6k3i" class="animable"></path><g id="elxxy8zv2ru9" class=""><rect x="292.26" y="80.06" width="134.71" height="228.15" style="fill: rgb(230, 230, 230); transform-origin: 359.615px 194.135px; transform: rotate(180deg);" class="animable" id="elxkc06n19ljk"></rect></g><path d="M277.83,75.46H435.7A1.34,1.34,0,0,1,437,76.8h0a1.34,1.34,0,0,1-1.33,1.33H277.83a1.34,1.34,0,0,1-1.34-1.33h0A1.34,1.34,0,0,1,277.83,75.46Z" style="fill: rgb(245, 245, 245); transform-origin: 356.745px 76.795px;" id="ela44ka67sf2r" class="animable"></path><g id="elg1lygnd5y98" class=""><rect x="286.55" y="80.06" width="137.76" height="228.15" style="fill: rgb(235, 235, 235); transform-origin: 355.43px 194.135px; transform: rotate(180deg);" class="animable" id="els262s0h9it"></rect></g><g id="elv3zhaodncpn" class=""><rect x="249.35" y="133.26" width="212.15" height="121.75" style="fill: rgb(250, 250, 250); transform-origin: 355.425px 194.135px; transform: rotate(90deg);" class="animable" id="el3q4natcbpyh"></rect></g><polygon points="372.19 300.21 358.17 88.06 336 88.06 350.02 300.21 372.19 300.21" style="fill: rgb(255, 255, 255); transform-origin: 354.095px 194.135px;" id="ellavbllalut8" class="animable"></polygon><polygon points="345.25 300.21 331.24 88.06 322.59 88.06 336.61 300.21 345.25 300.21" style="fill: rgb(255, 255, 255); transform-origin: 333.92px 194.135px;" id="el3om53ylzn1" class="animable"></polygon><g id="el7ispz5whxk5" class=""><rect x="188.99" y="193.63" width="212.15" height="1.02" style="fill: rgb(230, 230, 230); transform-origin: 295.065px 194.14px; transform: rotate(90deg);" class="animable" id="elw5trh0yuwo"></rect></g><g id="el0y3f9qnx5c4" class=""><g style="opacity: 0.4; transform-origin: 409.32px 223.985px;" class="animable" id="el1txkd5y3c1p"><g id="elhkboqyd1a0k"><rect x="416.21" y="73.07" width="13.77" height="301.83" style="fill: rgb(240, 240, 240); transform-origin: 423.095px 223.985px; transform: rotate(180deg);" class="animable" id="elme5uvt3gu9s"></rect></g><g id="el2r1qgpmhevu"><rect x="410.84" y="73.07" width="10.73" height="301.83" style="fill: rgb(230, 230, 230); transform-origin: 416.205px 223.985px; transform: rotate(180deg);" class="animable" id="elbb9yh9iftdh"></rect></g><g id="elyx4kanlbau"><rect x="402.44" y="73.07" width="13.77" height="301.83" style="fill: rgb(240, 240, 240); transform-origin: 409.325px 223.985px; transform: rotate(180deg);" class="animable" id="el1nqz39n4ws0j"></rect></g><g id="eldkzvot67xji"><rect x="397.07" y="73.07" width="10.73" height="301.83" style="fill: rgb(230, 230, 230); transform-origin: 402.435px 223.985px; transform: rotate(180deg);" class="animable" id="elkeuei1spa5"></rect></g><g id="elly0rllzi0a"><rect x="388.66" y="73.07" width="13.77" height="301.83" style="fill: rgb(240, 240, 240); transform-origin: 395.545px 223.985px; transform: rotate(180deg);" class="animable" id="elo6pjkuoh4m"></rect></g></g></g><g id="eluq6q6a6ewz" class=""><g style="opacity: 0.4; transform-origin: 295.71px 223.985px;" class="animable" id="eljnnty4kml0f"><g id="el00fwi14j4qxl"><rect x="299.68" y="73.07" width="7.94" height="301.83" style="fill: rgb(240, 240, 240); transform-origin: 303.65px 223.985px; transform: rotate(180deg);" class="animable" id="elh5z4zeqebfj"></rect></g><g id="elf6wrz6iginm"><rect x="296.58" y="73.07" width="6.18" height="301.83" style="fill: rgb(230, 230, 230); transform-origin: 299.67px 223.985px; transform: rotate(180deg);" class="animable" id="elt3mollliwh8"></rect></g><g id="elevyemjk3jrr"><rect x="291.74" y="73.07" width="7.94" height="301.83" style="fill: rgb(240, 240, 240); transform-origin: 295.71px 223.985px; transform: rotate(180deg);" class="animable" id="elyouqjbsfqwq"></rect></g><g id="el7ztudinpjzm"><rect x="288.65" y="73.07" width="6.18" height="301.83" style="fill: rgb(230, 230, 230); transform-origin: 291.74px 223.985px; transform: rotate(180deg);" class="animable" id="elctp15fiam6"></rect></g><g id="el3nv80gkmsxi"><rect x="283.8" y="73.07" width="7.94" height="301.83" style="fill: rgb(240, 240, 240); transform-origin: 287.77px 223.985px; transform: rotate(180deg);" class="animable" id="eluhumng3i9mo"></rect></g></g></g><rect x="105.49" y="213.85" width="17.32" height="26.51" style="fill: rgb(224, 224, 224); transform-origin: 114.15px 227.105px;" id="el2mu39fnzujt" class="animable"></rect><g id="elswj64ohplca" class=""><rect x="94.81" y="213.85" width="10.68" height="26.51" style="fill: rgb(235, 235, 235); transform-origin: 100.15px 227.105px; transform: rotate(180deg);" class="animable" id="eltj7nzqd7xxc"></rect></g><polygon points="142.72 210.4 122.82 210.4 115.64 240.37 135.54 240.37 142.72 210.4" style="fill: rgb(230, 230, 230); transform-origin: 129.18px 225.385px;" id="el869cb14gaxf" class="animable"></polygon><polygon points="114.21 210.4 122.82 210.4 115.64 240.37 107.03 240.37 114.21 210.4" style="fill: rgb(240, 240, 240); transform-origin: 114.925px 225.385px;" id="elgpnzdg9zttd" class="animable"></polygon><rect x="132.57" y="212.99" width="19.24" height="27.38" style="fill: rgb(235, 235, 235); transform-origin: 142.19px 226.68px;" id="el9hsc0fggka" class="animable"></rect><g id="elktn7i3rz73l" class=""><rect x="122.82" y="212.99" width="9.75" height="27.38" style="fill: rgb(245, 245, 245); transform-origin: 127.695px 226.68px; transform: rotate(180deg);" class="animable" id="el1hvx61v3x3g"></rect></g><rect x="144.49" y="217.42" width="13.93" height="22.95" style="fill: rgb(224, 224, 224); transform-origin: 151.455px 228.895px;" id="eltsg389eqbi7" class="animable"></rect><g id="ely36exya941" class=""><rect x="134.74" y="217.42" width="9.75" height="22.95" style="fill: rgb(230, 230, 230); transform-origin: 139.615px 228.895px; transform: rotate(180deg);" class="animable" id="elp0wj5prekqe"></rect></g><rect x="161.26" y="213.85" width="17.32" height="26.51" style="fill: rgb(224, 224, 224); transform-origin: 169.92px 227.105px;" id="elks9mwj07n6o" class="animable"></rect><g id="elba0vxppeeud" class=""><rect x="150.58" y="213.85" width="10.68" height="26.51" style="fill: rgb(235, 235, 235); transform-origin: 155.92px 227.105px; transform: rotate(180deg);" class="animable" id="elnm26s3fu41"></rect></g><polygon points="198.48 210.4 178.58 210.4 171.4 240.37 191.3 240.37 198.48 210.4" style="fill: rgb(230, 230, 230); transform-origin: 184.94px 225.385px;" id="el5yrwbpc5tqk" class="animable"></polygon><polygon points="169.97 210.4 178.58 210.4 171.4 240.37 162.8 240.37 169.97 210.4" style="fill: rgb(240, 240, 240); transform-origin: 170.69px 225.385px;" id="el7ys2uhedfga" class="animable"></polygon><rect x="188.33" y="212.99" width="19.23" height="27.38" style="fill: rgb(235, 235, 235); transform-origin: 197.945px 226.68px;" id="eluog25np4yqg" class="animable"></rect><g id="elrbaexdyqn8o" class=""><rect x="178.58" y="212.99" width="9.75" height="27.38" style="fill: rgb(245, 245, 245); transform-origin: 183.455px 226.68px; transform: rotate(180deg);" class="animable" id="eldng623ct4wf"></rect></g><rect x="200.25" y="217.42" width="13.93" height="22.95" style="fill: rgb(224, 224, 224); transform-origin: 207.215px 228.895px;" id="el48o8rsgpfbi" class="animable"></rect><g id="eldrjaabz2jin" class=""><rect x="190.5" y="217.42" width="9.75" height="22.95" style="fill: rgb(230, 230, 230); transform-origin: 195.375px 228.895px; transform: rotate(180deg);" class="animable" id="elovfvl0oilq"></rect></g><g id="el7zfxf24dfi" class=""><rect x="129.58" y="75.46" width="65.48" height="82.3" style="fill: rgb(240, 240, 240); transform-origin: 162.32px 116.61px; transform: rotate(180deg);" class="animable" id="eldh91tele0f"></rect></g><g id="ell5cs20q14z" class=""><rect x="115.13" y="75.46" width="77.42" height="82.3" style="fill: rgb(245, 245, 245); transform-origin: 153.84px 116.61px; transform: rotate(180deg);" class="animable" id="ella2nooza9fs"></rect></g><g id="eljyd9hj9o6r" class=""><rect x="119.17" y="84.39" width="69.33" height="64.45" style="fill: rgb(255, 255, 255); transform-origin: 153.835px 116.615px; transform: rotate(-90deg);" class="animable" id="elw6l0khzaxf"></rect></g><g id="el052bf8s708f9" class=""><circle cx="153.84" cy="116.61" r="14.45" style="fill: rgb(245, 245, 245); transform-origin: 153.84px 116.61px; transform: rotate(-45deg);" class="animable" id="elmo75tq71krb"></circle></g></g><g id="freepik--Shadow--inject-2" class="animable" style="transform-origin: 250px 416.24px;"><ellipse id="freepik--path--inject-2" cx="250" cy="416.24" rx="193.89" ry="11.32" style="fill: rgb(245, 245, 245); transform-origin: 250px 416.24px;" class="animable"></ellipse></g><g id="freepik--Player--inject-2" class="animable animator-active" style="transform-origin: 217.481px 215.655px;"><path d="M334,315H122.78a10.05,10.05,0,0,1-9.69-8.69L92.18,125a7.61,7.61,0,0,1,7.69-8.69H311a10,10,0,0,1,9.69,8.69l20.91,181.29A7.61,7.61,0,0,1,334,315Z" style="fill: #5B92F9; transform-origin: 216.891px 215.654px;" id="el0hp96qdlbf4f" class="animable"></path><path d="M335.09,315H126.88a10,10,0,0,1-9.68-8.69L96.29,125a7.6,7.6,0,0,1,7.68-8.69H312.18a10.05,10.05,0,0,1,9.69,8.69l20.91,181.29A7.61,7.61,0,0,1,335.09,315Z" style="fill: #5B92F9; transform-origin: 219.536px 215.655px;" id="elds3p9qr6yfm" class="animable"></path><g id="elxcg5gaugl3p"><path d="M335.09,315H126.88a10,10,0,0,1-9.68-8.69L96.29,125a7.6,7.6,0,0,1,7.68-8.69H312.18a10.05,10.05,0,0,1,9.69,8.69l20.91,181.29A7.61,7.61,0,0,1,335.09,315Z" style="fill: rgb(255, 255, 255); opacity: 0.8; transform-origin: 219.536px 215.655px;" class="animable" id="elntnfmy9sxmi"></path></g><path d="M312.68,120.69H104.47l-.71,0c-5.38.45-3.92,8.66,1.53,8.66H313.86c5.45,0,5-8.21-.47-8.66Z" style="fill: #5B92F9; transform-origin: 209.057px 125.02px;" id="eln7mcvt9dzrj" class="animable"></path><path d="M108.39,127.49a2.78,2.78,0,0,1-2.68-2.41,2.2,2.2,0,0,1,2.23-2.51,2.77,2.77,0,0,1,2.68,2.4,2.21,2.21,0,0,1-2.23,2.52Zm-.45-4a1.3,1.3,0,0,0-1,.42,1.35,1.35,0,0,0-.31,1,1.82,1.82,0,0,0,1.75,1.58,1.3,1.3,0,0,0,1-.42,1.38,1.38,0,0,0,.31-1h0A1.81,1.81,0,0,0,107.94,123.51Z" style="fill: rgb(250, 250, 250); transform-origin: 108.165px 125.03px;" id="elya8vohiq99" class="animable"></path><path d="M115.17,127.49a2.78,2.78,0,0,1-2.69-2.41,2.2,2.2,0,0,1,2.23-2.51,2.79,2.79,0,0,1,2.69,2.4,2.29,2.29,0,0,1-.54,1.78A2.23,2.23,0,0,1,115.17,127.49Zm-.46-4a1.31,1.31,0,0,0-1,.42,1.35,1.35,0,0,0-.31,1,1.82,1.82,0,0,0,1.76,1.58,1.27,1.27,0,0,0,1.29-1.47h0A1.81,1.81,0,0,0,114.71,123.51Z" style="fill: rgb(250, 250, 250); transform-origin: 114.938px 125.03px;" id="elffbze4d1wgi" class="animable"></path><path d="M121.94,127.49a2.78,2.78,0,0,1-2.69-2.41,2.26,2.26,0,0,1,.54-1.78,2.23,2.23,0,0,1,1.69-.73,2.79,2.79,0,0,1,2.69,2.4h0a2.21,2.21,0,0,1-2.23,2.52Zm-.46-4a1.27,1.27,0,0,0-1.29,1.46,1.81,1.81,0,0,0,1.75,1.58,1.27,1.27,0,0,0,1.29-1.47h0A1.8,1.8,0,0,0,121.48,123.51Z" style="fill: rgb(250, 250, 250); transform-origin: 121.711px 125.03px;" id="eleb8ax9eyei4" class="animable"></path><path d="M328.87,300.62H129.79a3.63,3.63,0,0,1-3.51-3.14l-18-155.7a2.75,2.75,0,0,1,2.78-3.15H310.19a3.63,3.63,0,0,1,3.51,3.15l18,155.7A2.75,2.75,0,0,1,328.87,300.62Z" style="fill: rgb(255, 255, 255); transform-origin: 219.989px 219.626px;" id="elgqfmhrxwdkh" class="animable"></path><g id="elctrj13z94p"><polygon points="322.52 292.96 136.37 292.96 136.15 291.08 322.31 291.08 322.52 292.96" style="fill: #5B92F9; opacity: 0.5; transform-origin: 229.335px 292.02px;" class="animable" id="ela0r2s7bv52p"></polygon></g><path d="M138.26,292a1.74,1.74,0,0,1-1.77,2,2.31,2.31,0,0,1-2.23-2,1.75,1.75,0,0,1,1.77-2A2.3,2.3,0,0,1,138.26,292Z" style="fill: #5B92F9; transform-origin: 136.261px 292px;" id="elny5f4w1pm0d" class="animable"></path><g id="elvwr5kyddck"><polygon points="275.59 205.75 198.77 161.33 210.46 262.67 275.59 205.75" style="fill: #5B92F9; opacity: 0.7; transform-origin: 237.18px 212px;" class="animable" id="el1wuo7y7o3sx"></polygon></g><polygon points="202.7 262.67 210.46 262.67 198.77 161.33 191.01 161.33 202.7 262.67" style="fill: #5B92F9; transform-origin: 200.735px 212px;" id="elcag4ypdaihn" class="animable"></polygon></g><g id="freepik--Character--inject-2" class="animable" style="transform-origin: 284.415px 251.497px;"><path d="M335.07,154.89c.55,1.33.95,2.45,1.36,3.68s.77,2.39,1.14,3.59c.69,2.41,1.29,4.84,1.84,7.27s1,4.87,1.42,7.32c.19,1.23.39,2.46.53,3.69l.24,1.85.06.49.06.67c0,.46,0,.82,0,1.24a25.76,25.76,0,0,1-.45,4.23c-.25,1.31-.53,2.58-.85,3.81-.65,2.47-1.4,4.84-2.22,7.18a130.33,130.33,0,0,1-5.72,13.63l-4.34-1.64c1.18-4.62,2.33-9.3,3.36-13.91.51-2.3,1-4.6,1.34-6.86.19-1.13.33-2.25.43-3.33a20.64,20.64,0,0,0,.09-3,4.17,4.17,0,0,0-.06-.57l0-.23-.08-.41-.35-1.73-.75-3.44c-.53-2.29-1.08-4.57-1.67-6.84s-1.24-4.51-1.92-6.73c-.34-1.11-.68-2.22-1-3.31s-.75-2.23-1.08-3.15Z" style="fill: rgb(255, 195, 189); transform-origin: 334.085px 184.215px;" id="elao8l1u5473m" class="animable"></path><path d="M332.7,212.84l1.53,6.49-4.06,4.8s-5.4-15.67.3-14.92Z" style="fill: rgb(255, 195, 189); transform-origin: 331.043px 216.657px;" id="elw1w9hd6xv3t" class="animable"></path><path d="M310.91,407.42a11.32,11.32,0,0,0,2.42-.33.23.23,0,0,0,.17-.18.2.2,0,0,0-.1-.21c-.31-.21-3.07-2-4.14-1.53a.76.76,0,0,0-.44.61,1.21,1.21,0,0,0,.35,1.16A2.61,2.61,0,0,0,310.91,407.42Zm1.81-.64c-1.6.32-2.8.26-3.26-.16a.82.82,0,0,1-.21-.77.3.3,0,0,1,.18-.28C310,405.32,311.59,406.09,312.72,406.78Z" style="fill: #5B92F9; transform-origin: 311.145px 406.26px;" id="elhi3ieb3z727" class="animable"></path><path d="M313.28,407.09a.2.2,0,0,0,.11,0,.2.2,0,0,0,.11-.18c0-.12,0-2.75-1-3.64a1.14,1.14,0,0,0-.92-.29.76.76,0,0,0-.73.61c-.22,1,1.43,3,2.29,3.51Zm-1.52-3.71a.7.7,0,0,1,.48.19c.59.53.78,2,.82,2.88-.87-.69-1.89-2.18-1.76-2.81,0-.1.08-.22.36-.26Z" style="fill: #5B92F9; transform-origin: 312.165px 405.035px;" id="elblumqt56edv" class="animable"></path><path d="M315.27,122.81c-1.12,5.43-3.47,16.45.3,20.08,0,0-1.54,5.52-11.65,5.52-11.11,0-5.25-5.52-5.25-5.52,6.07-1.45,6-5.95,4.95-10.17Z" style="fill: rgb(255, 195, 189); transform-origin: 306.348px 135.61px;" id="el14bdrhbapdtp" class="animable"></path><path d="M292.08,113.84a.42.42,0,0,1-.36-.14,3.45,3.45,0,0,0-2.9-1.17.43.43,0,0,1-.5-.36.45.45,0,0,1,.36-.5,4.3,4.3,0,0,1,3.68,1.44.44.44,0,0,1,0,.62A.47.47,0,0,1,292.08,113.84Z" style="fill: rgb(38, 50, 56); transform-origin: 290.402px 112.744px;" id="elx7m47hvzwyg" class="animable"></path><path d="M290.24,119.32a20,20,0,0,1-1.91,5.08,3.2,3.2,0,0,0,2.68.07Z" style="fill: rgb(237, 132, 126); transform-origin: 289.67px 122.025px;" id="elvla077qa7kh" class="animable"></path><path d="M290.7,118c.11.73-.18,1.38-.66,1.46s-1-.46-1.06-1.19.18-1.38.66-1.46S290.6,117.23,290.7,118Z" style="fill: rgb(38, 50, 56); transform-origin: 289.847px 118.135px;" id="elqahaftswnv" class="animable"></path><path d="M289.86,116.78l-1.83-.23S289.13,117.78,289.86,116.78Z" style="fill: rgb(38, 50, 56); transform-origin: 288.945px 116.861px;" id="elws84b4yqnua" class="animable"></path><polygon points="323.94 407.61 314.78 407.61 315.7 386.38 324.87 386.38 323.94 407.61" style="fill: rgb(255, 195, 189); transform-origin: 319.825px 396.995px;" id="el7rpzr8262ao" class="animable"></polygon><path d="M314.06,405.82h10.3a.72.72,0,0,1,.72.62l1.1,8.15a1.5,1.5,0,0,1-1.49,1.63c-3.59-.06-5.32-.27-9.84-.27-2.79,0-6.86.28-10.71.28s-4-3.8-2.41-4.14c7.2-1.55,8.35-3.68,10.79-5.71A2.39,2.39,0,0,1,314.06,405.82Z" style="fill: rgb(38, 50, 56); transform-origin: 313.482px 411.025px;" id="eljxjuxiqqrl" class="animable"></path><g id="elm93tttw5gnd"><g style="opacity: 0.2; transform-origin: 320.05px 391.86px;" class="animable" id="el59t1j6xflue"><polygon points="324.87 386.39 315.7 386.39 315.23 397.33 324.4 397.33 324.87 386.39" id="elgrzjy06y7w7" class="animable" style="transform-origin: 320.05px 391.86px;"></polygon></g></g><path d="M286.05,160.18a149.9,149.9,0,0,1-8.55,13.45c-1.53,2.18-3.11,4.33-4.84,6.42a64.81,64.81,0,0,1-5.58,6.13l-.39.38-.46.41c-.31.28-.62.53-.93.77a20.12,20.12,0,0,1-1.87,1.33,35,35,0,0,1-3.79,2.11,62.08,62.08,0,0,1-7.62,3.09A96.44,96.44,0,0,1,236.47,198l-1.11-4.5c4.74-1.77,9.52-3.7,14-5.82a68.48,68.48,0,0,0,6.49-3.43,29.71,29.71,0,0,0,2.86-1.93c.43-.34.86-.67,1.22-1a6.7,6.7,0,0,0,.54-.51l.24-.25.29-.32a107.24,107.24,0,0,0,8.84-11.84c1.41-2.09,2.74-4.25,4.09-6.39s2.68-4.36,4-6.46Z" style="fill: rgb(255, 195, 189); transform-origin: 260.705px 176.775px;" id="el7nhqgwrj2tf" class="animable"></path><path d="M237.15,192.54,232.6,194l2.89,6.71s6.18-2.83,6.63-6.75l-.92-.74A4.37,4.37,0,0,0,237.15,192.54Z" style="fill: rgb(255, 195, 189); transform-origin: 237.36px 196.512px;" id="elt9itvlxotak" class="animable"></path><polygon points="227.11 195.68 230.17 201.68 235.49 200.75 232.6 194.04 227.11 195.68" style="fill: rgb(255, 195, 189); transform-origin: 231.3px 197.86px;" id="elo80gpcgbleh" class="animable"></polygon><path d="M314.88,111.53c.8,9.06,1.32,12.88-2.52,18.21-5.78,8-17.07,7.12-20.55-1.5-3.13-7.76-3.9-21.28,4.35-26.25A12.29,12.29,0,0,1,314.88,111.53Z" style="fill: rgb(255, 195, 189); transform-origin: 302.528px 117.704px;" id="elfxahlu136zn" class="animable"></path><path d="M293.93,118.9c-1.87-1.91-1.68-7.29-.95-8.8a2.91,2.91,0,0,1-2-3.92c.58-1.63,3.42-5.06,9.26-6.84,6.76-2.06,17.89.77,20.52,10s-3.42,22.34-7.8,23.44S303.78,131.85,293.93,118.9Z" style="fill: rgb(38, 50, 56); transform-origin: 306.083px 115.87px;" id="ellhx8bimwmem" class="animable"></path><path d="M311,94.86a3.48,3.48,0,1,0-1,5.09A3.67,3.67,0,0,0,311,94.86Z" style="fill: rgb(38, 50, 56); transform-origin: 308.183px 96.9577px;" id="el1rb2x1r61pv" class="animable"></path><path d="M315.9,93.08a3.62,3.62,0,1,0-4.55,2.9A3.83,3.83,0,0,0,315.9,93.08Z" style="fill: rgb(38, 50, 56); transform-origin: 312.328px 92.471px;" id="elgefbtg0guq" class="animable"></path><path d="M324.05,106.79a3.48,3.48,0,1,1-5.12.9A3.7,3.7,0,0,1,324.05,106.79Z" style="fill: rgb(38, 50, 56); transform-origin: 321.891px 109.566px;" id="elahhtmutjbvs" class="animable"></path><path d="M325.87,102.11a3.61,3.61,0,1,1-3,4.46A3.82,3.82,0,0,1,325.87,102.11Z" style="fill: rgb(38, 50, 56); transform-origin: 326.391px 105.685px;" id="elyhdewp18zs" class="animable"></path><path d="M322.6,92.56a3.82,3.82,0,1,0-5.61.94A4,4,0,0,0,322.6,92.56Z" style="fill: rgb(38, 50, 56); transform-origin: 319.374px 90.4754px;" id="el6pdyyffe2lg" class="animable"></path><path d="M327.49,97.79a4.22,4.22,0,1,0-6.06-1.67A4.45,4.45,0,0,0,327.49,97.79Z" style="fill: rgb(38, 50, 56); transform-origin: 325.208px 94.194px;" id="elyeumarm7xes" class="animable"></path><path d="M328.46,103.27a3.23,3.23,0,1,0-4.2-2.38A3.43,3.43,0,0,0,328.46,103.27Z" style="fill: rgb(38, 50, 56); transform-origin: 327.418px 100.186px;" id="elhghnm2f9m8b" class="animable"></path><path d="M320.83,110.35c5.47-2.95,7.77-9.3,5.14-14.19s-9.19-6.46-14.67-3.52-7.77,9.3-5.14,14.19S315.36,113.29,320.83,110.35Z" style="fill: rgb(38, 50, 56); transform-origin: 316.064px 101.495px;" id="elqupiwph80i8" class="animable"></path><path d="M298.1,117a9.85,9.85,0,0,1-1.1,5.79c-1.29,2.43-3.27,1.95-4-.15-.69-1.88-.84-5.42,1-7.17S297.77,114.71,298.1,117Z" style="fill: rgb(255, 195, 189); transform-origin: 295.345px 119.5px;" id="el7domcm5hwjh" class="animable"></path><path d="M295,123.32c.18.67,0,1.3-.43,1.41s-.89-.34-1.07-1,0-1.3.43-1.41S294.86,122.65,295,123.32Z" style="fill: rgb(255, 255, 255); transform-origin: 294.25px 123.525px;" id="elvygpqyq6zdr" class="animable"></path><path d="M296.82,200.55s4.7,62.91,9.86,98.36c4.18,28.64,7,95.57,7,95.57h12.5s6.59-64.64,4.6-93c-5-71.67,5.15-84.35-6.61-101Z" style="fill: #5B92F9; transform-origin: 313.987px 297.48px;" id="el4takp6y1xxx" class="animable"></path><g id="eloytbwt0a1w"><path d="M309.47,238.17c.25,15-3.71,28.51-6.22,33.09-1.35-12.28-2.57-25.09-3.58-36.39C303.64,222.07,309.23,224,309.47,238.17Z" style="opacity: 0.2; transform-origin: 304.576px 248.786px;" class="animable" id="elgd2tcety6v"></path></g><polygon points="312 394.73 327.92 394.73 328.81 389.14 311.97 388.57 312 394.73" style="fill: rgb(38, 50, 56); transform-origin: 320.39px 391.65px;" id="eluvta84h3wz" class="animable"></polygon><path d="M298.57,404.17a.23.23,0,0,0,.08-.2.2.2,0,0,0-.17-.18c-.46-.09-4.5-.82-5.41.08a.72.72,0,0,0-.19.66,1.18,1.18,0,0,0,.67.9c1.21.57,3.64-.53,5-1.24Zm-5.15,0c.56-.45,2.73-.29,4.34,0-1.87.91-3.34,1.25-4,.94a.77.77,0,0,1-.43-.6.27.27,0,0,1,.07-.26Z" style="fill: #5B92F9; transform-origin: 295.757px 404.507px;" id="elvewjm6prsk" class="animable"></path><path d="M298.57,404.17l0,0a.23.23,0,0,0,0-.21c0-.1-.93-2.39-2.31-3a1.58,1.58,0,0,0-1.26,0c-.56.23-.64.57-.61.82.12,1,2.76,2.31,4,2.46A.18.18,0,0,0,298.57,404.17ZM295,401.46a.7.7,0,0,1,.23-.13,1.12,1.12,0,0,1,.93,0,4.92,4.92,0,0,1,1.91,2.37c-1.26-.33-3.11-1.4-3.18-2C294.88,401.65,294.87,401.56,295,401.46Z" style="fill: #5B92F9; transform-origin: 296.49px 402.536px;" id="elkxfwftxoowf" class="animable"></path><polygon points="308.7 402.56 299.92 404.5 298.36 395.85 296.34 384.51 296.1 383.19 304.88 381.24 305.15 382.73 307.12 393.71 308.7 402.56" style="fill: rgb(255, 195, 189); transform-origin: 302.4px 392.87px;" id="el9d7a3serodq" class="animable"></polygon><g id="elcqg0tyi9p1"><polygon points="307.12 393.71 298.36 395.85 296.34 384.51 305.15 382.73 307.12 393.71" style="opacity: 0.2; transform-origin: 301.73px 389.29px;" class="animable" id="eltxenkx6yie"></polygon></g><path d="M287,200.55s-14.65,73.54-14.65,94.7c0,18.78,23.19,96.75,23.19,96.75L308,390s-7.17-53.19-12.21-90.27c3.91-39.92,23.1-77.75,17-99.2Z" style="fill: #5B92F9; transform-origin: 293.164px 296.265px;" id="eli2ts92notv" class="animable"></path><path d="M298.72,402.81l9.91-2.94a.72.72,0,0,1,.88.38l3.41,7.45a1.49,1.49,0,0,1-1,2c-3.48,1-5.2,1.26-9.56,2.56-2.68.8-8.15,2.73-11.85,3.83s-5-2.48-3.52-3.26c6.48-3.54,8.61-6.38,10.37-9A2.48,2.48,0,0,1,298.72,402.81Z" style="fill: rgb(38, 50, 56); transform-origin: 299.71px 408.066px;" id="el9cf8vn2kndm" class="animable"></path><polygon points="294.3 394.44 309.82 390.68 309.17 384.55 292.55 388.56 294.3 394.44" style="fill: rgb(38, 50, 56); transform-origin: 301.185px 389.495px;" id="elaiiwlv7qb7g" class="animable"></polygon><path d="M320,155.24c-.18-5.27,3.24-12,11.31-10.27,3.81.8,7.74,14.53,7.74,14.53L328.8,171.57C325.26,169.93,320.16,158.58,320,155.24Z" style="fill: rgb(38, 50, 56); transform-origin: 329.522px 158.131px;" id="elup5wtbwhdo" class="animable"></path><g id="elle21f4t372"><path d="M327.11,156.65a68.45,68.45,0,0,0,1.74,14.86l-.06.06c-2.1-1-4.74-5.39-6.57-9.49Z" style="opacity: 0.2; transform-origin: 325.535px 164.11px;" class="animable" id="el7xd68vxzewv"></path></g><path d="M283.15,145.24s-4.38,1.53,3.84,55.31h37.22c-.48-15.15-.4-24.49,7.14-55.58a108.59,108.59,0,0,0-15.78-2.08,119,119,0,0,0-16.9,0C291.4,143.55,283.15,145.24,283.15,145.24Z" style="fill: rgb(38, 50, 56); transform-origin: 306.667px 171.57px;" id="elpgv4eei27ca" class="animable"></path><path d="M293.47,144.07s3-3.33,5.71-3.78,14.36-2,22.25-.87a55.67,55.67,0,0,1-1,5.49Z" style="fill: rgb(38, 50, 56); transform-origin: 307.45px 141.963px;" id="elyzzmq9yxewc" class="animable"></path><g id="elmyadzuvjao"><path d="M283.41,163.64l5.75.74c-.36,4.36-3.17,9.58-5.43,12.35-.48-4-.83-7.49-1.09-10.54C283.05,164.62,283.41,163.64,283.41,163.64Z" style="opacity: 0.2; transform-origin: 285.9px 170.185px;" class="animable" id="elna71vdx75di"></path></g><path d="M283.15,145.24c-4.57,1.11-10.3,13.61-10.3,13.61l9.13,14.4s11.6-8.66,11.49-21.2C293.42,146.79,288.69,143.89,283.15,145.24Z" style="fill: rgb(38, 50, 56); transform-origin: 283.16px 159.08px;" id="el3b5r8lufwtk" class="animable"></path><path d="M324.79,198.37l1.64,3.33c.13.26-.18.52-.61.52h-39c-.33,0-.61-.16-.63-.37l-.3-3.33c0-.24.27-.43.64-.43h37.69A.67.67,0,0,1,324.79,198.37Z" style="fill: #5B92F9; transform-origin: 306.175px 200.155px;" id="elbwr4anjgs1c" class="animable"></path><g id="ell2dap4km0as"><path d="M324.79,198.37l1.64,3.33c.13.26-.18.52-.61.52h-39c-.33,0-.61-.16-.63-.37l-.3-3.33c0-.24.27-.43.64-.43h37.69A.67.67,0,0,1,324.79,198.37Z" style="opacity: 0.2; transform-origin: 306.175px 200.155px;" class="animable" id="elepc2xpoe0e9"></path></g><path d="M319.68,202.58h1c.2,0,.36-.1.35-.23L320.6,198c0-.12-.18-.23-.38-.23h-1c-.2,0-.36.11-.35.23l.44,4.33C319.31,202.48,319.48,202.58,319.68,202.58Z" style="fill: #5B92F9; transform-origin: 319.95px 200.175px;" id="elwlwnyp8ov1" class="animable"></path><path d="M295.21,202.58h1c.2,0,.36-.1.35-.23l-.44-4.33c0-.12-.18-.23-.38-.23h-1c-.2,0-.36.11-.35.23l.43,4.33C294.84,202.48,295,202.58,295.21,202.58Z" style="fill: #5B92F9; transform-origin: 295.475px 200.185px;" id="elnglbxiy3ax" class="animable"></path></g><defs>     <filter id="active" height="200%">         <feMorphology in="SourceAlpha" result="DILATED" operator="dilate" radius="2"></feMorphology>                <feFlood flood-color="#32DFEC" flood-opacity="1" result="PINK"></feFlood>        <feComposite in="PINK" in2="DILATED" operator="in" result="OUTLINE"></feComposite>        <feMerge>            <feMergeNode in="OUTLINE"></feMergeNode>            <feMergeNode in="SourceGraphic"></feMergeNode>        </feMerge>    </filter>    <filter id="hover" height="200%">        <feMorphology in="SourceAlpha" result="DILATED" operator="dilate" radius="2"></feMorphology>                <feFlood flood-color="#ff0000" flood-opacity="0.5" result="PINK"></feFlood>        <feComposite in="PINK" in2="DILATED" operator="in" result="OUTLINE"></feComposite>        <feMerge>            <feMergeNode in="OUTLINE"></feMergeNode>            <feMergeNode in="SourceGraphic"></feMergeNode>        </feMerge>            <feColorMatrix type="matrix" values="0   0   0   0   0                0   1   0   0   0                0   0   0   0   0                0   0   0   1   0 "></feColorMatrix>    </filter></defs></svg>